<?xml version="1.0" standalone="no"?>
<!DOCTYPE svg PUBLIC "-//W3C//DTD SVG 20010904//EN"
 "http://www.w3.org/TR/2001/REC-SVG-20010904/DTD/svg10.dtd">
<svg version="1.0" xmlns="http://www.w3.org/2000/svg"
 width="700.000000pt" height="700.000000pt" viewBox="0 0 700.000000 700.000000"
 preserveAspectRatio="xMidYMid meet">
<metadata>
Created by potrace 1.11, written by Peter Selinger 2001-2013
</metadata>
<g transform="translate(0.000000,700.000000) scale(0.100000,-0.100000)"
fill="#000000" stroke="none">
<path d="M248 6505 c-61 -17 -107 -45 -156 -99 -50 -54 -66 -86 -81 -156 -9
-41 -11 -560 -9 -2085 l3 -2030 33 -67 c36 -73 87 -124 161 -160 l46 -23 1228
-3 1227 -2 0 -385 0 -384 -492 -3 -493 -3 -56 -26 c-69 -33 -128 -89 -160
-155 -36 -74 -34 -188 4 -266 32 -65 89 -121 156 -152 l46 -21 1795 0 1795 0
46 21 c67 31 124 87 156 152 38 78 40 192 4 266 -32 66 -91 122 -160 155 l-56
26 -492 3 -493 3 0 384 0 385 1228 2 1227 3 46 23 c74 36 125 87 161 160 l33
67 3 2030 c3 2089 3 2094 -35 2169 -20 39 -89 112 -129 137 -84 51 99 49
-3339 48 -2582 -1 -3209 -3 -3247 -14z m6242 -2310 l0 -1815 -2990 0 -2990 0
0 1815 0 1815 2990 0 2990 0 0 -1815z"/>
<path d="M3809 5500 c-53 -10 -106 -47 -133 -93 -13 -23 -185 -541 -381 -1151
-334 -1034 -357 -1112 -352 -1162 19 -180 243 -249 364 -111 18 21 41 64 52
99 10 35 171 533 357 1108 185 575 339 1066 342 1091 13 137 -108 245 -249
219z"/>
<path d="M2142 4648 c-573 -266 -602 -282 -639 -352 -37 -71 -12 -196 50 -254
37 -34 1133 -544 1183 -549 25 -3 62 1 93 12 153 51 185 268 52 363 -21 15
-185 95 -365 177 -179 83 -326 153 -326 156 0 3 105 55 233 114 456 212 470
219 501 263 100 144 6 332 -166 332 -48 0 -104 -24 -616 -262z"/>
<path d="M4155 4893 c-54 -28 -95 -75 -110 -128 -20 -65 -11 -122 27 -181 34
-50 36 -51 506 -269 127 -59 232 -111 232 -114 0 -3 -147 -73 -326 -156 -180
-82 -344 -162 -365 -177 -133 -95 -101 -312 52 -363 31 -11 68 -15 93 -12 50
6 1147 515 1183 549 63 58 87 183 50 255 -36 68 -68 86 -639 351 -524 244
-568 262 -618 262 -30 -1 -68 -8 -85 -17z"/>
</g>
</svg>
